<svg width="183" height="29" viewBox="0 0 183 29" fill="none" xmlns="http://www.w3.org/2000/svg">
<path d="M55.256 15.24C54.424 15.24 53.6773 15.112 53.016 14.856C52.3547 14.6 51.7947 14.2267 51.336 13.736C50.8773 13.2347 50.5253 12.6267 50.28 11.912C50.0347 11.1973 49.912 10.376 49.912 9.448C49.912 8.52 50.0507 7.69867 50.328 6.984C50.616 6.26933 51.0053 5.66667 51.496 5.176C51.9867 4.67467 52.5627 4.296 53.224 4.04C53.8853 3.784 54.5947 3.656 55.352 3.656C55.8107 3.656 56.2267 3.69333 56.6 3.768C56.9733 3.832 57.2987 3.90667 57.576 3.992C57.8533 4.07733 58.0827 4.168 58.264 4.264C58.4453 4.36 58.5733 4.42933 58.648 4.472L58.056 6.12C57.8 5.96 57.432 5.81067 56.952 5.672C56.4827 5.52267 55.9707 5.448 55.416 5.448C54.936 5.448 54.488 5.53333 54.072 5.704C53.656 5.864 53.2933 6.10933 52.984 6.44C52.6853 6.77067 52.4507 7.18667 52.28 7.688C52.1093 8.18933 52.024 8.77067 52.024 9.432C52.024 10.0187 52.088 10.5573 52.216 11.048C52.3547 11.5387 52.5627 11.9653 52.84 12.328C53.1173 12.68 53.4693 12.9573 53.896 13.16C54.3227 13.352 54.8347 13.448 55.432 13.448C56.1467 13.448 56.728 13.3787 57.176 13.24C57.624 13.0907 57.9707 12.952 58.216 12.824L58.76 14.472C58.632 14.5573 58.456 14.6427 58.232 14.728C58.0187 14.8133 57.7627 14.8987 57.464 14.984C57.1653 15.0587 56.8293 15.1173 56.456 15.16C56.0827 15.2133 55.6827 15.24 55.256 15.24ZM65.2031 8.376C65.0431 8.32267 64.8191 8.26933 64.5311 8.216C64.2538 8.152 63.9285 8.12 63.5551 8.12C63.3418 8.12 63.1125 8.14133 62.8671 8.184C62.6325 8.22667 62.4671 8.264 62.3711 8.296V15H60.4351V7.032C60.8085 6.89333 61.2725 6.76533 61.8271 6.648C62.3925 6.52 63.0165 6.456 63.6991 6.456C63.8271 6.456 63.9765 6.46667 64.1471 6.488C64.3178 6.49867 64.4885 6.52 64.6591 6.552C64.8298 6.57333 64.9951 6.60533 65.1551 6.648C65.3151 6.68 65.4431 6.712 65.5391 6.744L65.2031 8.376ZM66.4243 10.856C66.4243 10.12 66.5309 9.47467 66.7443 8.92C66.9683 8.36533 67.2616 7.90667 67.6243 7.544C67.9869 7.17067 68.4029 6.89333 68.8723 6.712C69.3416 6.52 69.8216 6.424 70.3123 6.424C71.4643 6.424 72.3603 6.78133 73.0003 7.496C73.6509 8.21067 73.9763 9.27733 73.9763 10.696C73.9763 10.8027 73.9709 10.9253 73.9603 11.064C73.9603 11.192 73.9549 11.3093 73.9443 11.416H68.4243C68.4776 12.088 68.7123 12.6107 69.1283 12.984C69.5549 13.3467 70.1683 13.528 70.9683 13.528C71.4376 13.528 71.8643 13.4853 72.2483 13.4C72.6429 13.3147 72.9523 13.224 73.1763 13.128L73.4323 14.712C73.3256 14.7653 73.1763 14.824 72.9843 14.888C72.8029 14.9413 72.5896 14.9893 72.3443 15.032C72.1096 15.0853 71.8536 15.128 71.5763 15.16C71.2989 15.192 71.0163 15.208 70.7283 15.208C69.9923 15.208 69.3523 15.1013 68.8083 14.888C68.2643 14.664 67.8163 14.36 67.4643 13.976C67.1123 13.5813 66.8509 13.1227 66.6803 12.6C66.5096 12.0667 66.4243 11.4853 66.4243 10.856ZM72.0403 9.992C72.0403 9.72533 72.0029 9.47467 71.9283 9.24C71.8536 8.99467 71.7416 8.78667 71.5923 8.616C71.4536 8.43467 71.2776 8.296 71.0643 8.2C70.8616 8.09333 70.6163 8.04 70.3283 8.04C70.0296 8.04 69.7683 8.09867 69.5443 8.216C69.3203 8.32267 69.1283 8.46667 68.9683 8.648C68.8189 8.82933 68.7016 9.03733 68.6163 9.272C68.5309 9.50667 68.4723 9.74667 68.4403 9.992H72.0403ZM78.9729 13.64C79.5702 13.64 80.0235 13.608 80.3329 13.544V11.4C80.2262 11.368 80.0715 11.336 79.8689 11.304C79.6662 11.272 79.4422 11.256 79.1969 11.256C78.9835 11.256 78.7649 11.272 78.5409 11.304C78.3275 11.336 78.1302 11.3947 77.9489 11.48C77.7782 11.5653 77.6395 11.688 77.5329 11.848C77.4262 11.9973 77.3729 12.1893 77.3729 12.424C77.3729 12.8827 77.5169 13.2027 77.8049 13.384C78.0929 13.5547 78.4822 13.64 78.9729 13.64ZM78.8129 6.424C79.4529 6.424 79.9915 6.504 80.4289 6.664C80.8662 6.824 81.2129 7.048 81.4689 7.336C81.7355 7.624 81.9222 7.976 82.0289 8.392C82.1462 8.79733 82.2049 9.24533 82.2049 9.736V14.808C81.9062 14.872 81.4529 14.9467 80.8449 15.032C80.2475 15.128 79.5702 15.176 78.8129 15.176C78.3115 15.176 77.8529 15.128 77.4369 15.032C77.0209 14.936 76.6635 14.7813 76.3649 14.568C76.0769 14.3547 75.8475 14.0773 75.6769 13.736C75.5169 13.3947 75.4369 12.9733 75.4369 12.472C75.4369 11.992 75.5275 11.5867 75.7089 11.256C75.9009 10.9253 76.1569 10.6587 76.4769 10.456C76.7969 10.2427 77.1649 10.0933 77.5809 10.008C78.0075 9.912 78.4502 9.864 78.9089 9.864C79.1222 9.864 79.3462 9.88 79.5809 9.912C79.8155 9.93333 80.0662 9.976 80.3329 10.04V9.72C80.3329 9.496 80.3062 9.28267 80.2529 9.08C80.1995 8.87733 80.1035 8.70133 79.9649 8.552C79.8369 8.392 79.6609 8.26933 79.4369 8.184C79.2235 8.09867 78.9515 8.056 78.6209 8.056C78.1729 8.056 77.7622 8.088 77.3889 8.152C77.0155 8.216 76.7115 8.29067 76.4769 8.376L76.2369 6.808C76.4822 6.72267 76.8395 6.63733 77.3089 6.552C77.7782 6.46667 78.2795 6.424 78.8129 6.424ZM84.4798 4.424L86.4158 4.104V6.632H89.3918V8.248H86.4158V11.656C86.4158 12.328 86.5224 12.808 86.7358 13.096C86.9491 13.384 87.3118 13.528 87.8238 13.528C88.1758 13.528 88.4851 13.4907 88.7518 13.416C89.0291 13.3413 89.2478 13.272 89.4078 13.208L89.7278 14.744C89.5038 14.84 89.2104 14.936 88.8478 15.032C88.4851 15.1387 88.0584 15.192 87.5677 15.192C86.9704 15.192 86.4691 15.112 86.0638 14.952C85.6691 14.792 85.3544 14.5627 85.1198 14.264C84.8851 13.9547 84.7198 13.5867 84.6238 13.16C84.5278 12.7227 84.4798 12.2267 84.4798 11.672V4.424ZM93.2153 15H91.2793V6.632H93.2153V15ZM93.4233 4.184C93.4233 4.54667 93.3059 4.83467 93.0713 5.048C92.8366 5.26133 92.5593 5.368 92.2393 5.368C91.9086 5.368 91.6259 5.26133 91.3913 5.048C91.1566 4.83467 91.0393 4.54667 91.0393 4.184C91.0393 3.81067 91.1566 3.51733 91.3913 3.304C91.6259 3.09067 91.9086 2.984 92.2393 2.984C92.5593 2.984 92.8366 3.09067 93.0713 3.304C93.3059 3.51733 93.4233 3.81067 93.4233 4.184ZM97.8291 15C97.2958 13.9013 96.7465 12.6427 96.1811 11.224C95.6265 9.79467 95.1198 8.264 94.6611 6.632H96.7251C96.8425 7.10133 96.9758 7.608 97.1251 8.152C97.2851 8.68533 97.4505 9.224 97.6211 9.768C97.8025 10.3013 97.9838 10.824 98.1651 11.336C98.3571 11.8373 98.5331 12.2907 98.6931 12.696C98.8531 12.2907 99.0238 11.8373 99.2051 11.336C99.3865 10.824 99.5625 10.3013 99.7331 9.768C99.9145 9.224 100.085 8.68533 100.245 8.152C100.405 7.608 100.544 7.10133 100.661 6.632H102.661C102.202 8.264 101.69 9.79467 101.125 11.224C100.57 12.6427 100.026 13.9013 99.4931 15H97.8291ZM103.456 10.856C103.456 10.12 103.562 9.47467 103.776 8.92C104 8.36533 104.293 7.90667 104.656 7.544C105.018 7.17067 105.434 6.89333 105.904 6.712C106.373 6.52 106.853 6.424 107.344 6.424C108.496 6.424 109.392 6.78133 110.032 7.496C110.682 8.21067 111.008 9.27733 111.008 10.696C111.008 10.8027 111.002 10.9253 110.992 11.064C110.992 11.192 110.986 11.3093 110.976 11.416H105.456C105.509 12.088 105.744 12.6107 106.16 12.984C106.586 13.3467 107.2 13.528 108 13.528C108.469 13.528 108.896 13.4853 109.28 13.4C109.674 13.3147 109.984 13.224 110.208 13.128L110.464 14.712C110.357 14.7653 110.208 14.824 110.016 14.888C109.834 14.9413 109.621 14.9893 109.376 15.032C109.141 15.0853 108.885 15.128 108.608 15.16C108.33 15.192 108.048 15.208 107.76 15.208C107.024 15.208 106.384 15.1013 105.84 14.888C105.296 14.664 104.848 14.36 104.496 13.976C104.144 13.5813 103.882 13.1227 103.712 12.6C103.541 12.0667 103.456 11.4853 103.456 10.856ZM109.072 9.992C109.072 9.72533 109.034 9.47467 108.96 9.24C108.885 8.99467 108.773 8.78667 108.624 8.616C108.485 8.43467 108.309 8.296 108.096 8.2C107.893 8.09333 107.648 8.04 107.36 8.04C107.061 8.04 106.8 8.09867 106.576 8.216C106.352 8.32267 106.16 8.46667 106 8.648C105.85 8.82933 105.733 9.03733 105.648 9.272C105.562 9.50667 105.504 9.74667 105.472 9.992H109.072ZM124.251 15C124.101 14.5627 123.947 14.1307 123.786 13.704C123.627 13.2773 123.472 12.84 123.323 12.392H118.651C118.501 12.84 118.347 13.2827 118.187 13.72C118.037 14.1467 117.888 14.5733 117.739 15H115.643C116.059 13.816 116.453 12.7227 116.827 11.72C117.2 10.7173 117.563 9.768 117.914 8.872C118.277 7.976 118.635 7.12267 118.987 6.312C119.339 5.50133 119.701 4.70133 120.075 3.912H121.979C122.352 4.70133 122.715 5.50133 123.067 6.312C123.419 7.12267 123.771 7.976 124.123 8.872C124.485 9.768 124.853 10.7173 125.227 11.72C125.611 12.7227 126.011 13.816 126.427 15H124.251ZM120.987 6.056C120.741 6.62133 120.459 7.30933 120.139 8.12C119.829 8.93067 119.504 9.81067 119.163 10.76H122.811C122.469 9.81067 122.139 8.92533 121.819 8.104C121.499 7.28267 121.221 6.6 120.987 6.056ZM127.049 10.824C127.049 10.2053 127.145 9.62933 127.337 9.096C127.529 8.552 127.801 8.08267 128.153 7.688C128.516 7.29333 128.953 6.984 129.465 6.76C129.977 6.536 130.553 6.424 131.193 6.424C131.983 6.424 132.729 6.568 133.433 6.856L133.017 8.44C132.793 8.344 132.537 8.264 132.249 8.2C131.972 8.136 131.673 8.104 131.353 8.104C130.596 8.104 130.02 8.344 129.625 8.824C129.231 9.29333 129.033 9.96 129.033 10.824C129.033 11.656 129.22 12.3173 129.593 12.808C129.967 13.288 130.596 13.528 131.481 13.528C131.812 13.528 132.137 13.496 132.457 13.432C132.777 13.368 133.055 13.288 133.289 13.192L133.561 14.792C133.348 14.8987 133.023 14.9947 132.585 15.08C132.159 15.1653 131.716 15.208 131.257 15.208C130.543 15.208 129.919 15.1013 129.385 14.888C128.863 14.664 128.425 14.36 128.073 13.976C127.732 13.5813 127.476 13.1173 127.305 12.584C127.135 12.04 127.049 11.4533 127.049 10.824ZM138.004 13.64C138.601 13.64 139.055 13.608 139.364 13.544V11.4C139.257 11.368 139.103 11.336 138.9 11.304C138.697 11.272 138.473 11.256 138.228 11.256C138.015 11.256 137.796 11.272 137.572 11.304C137.359 11.336 137.161 11.3947 136.98 11.48C136.809 11.5653 136.671 11.688 136.564 11.848C136.457 11.9973 136.404 12.1893 136.404 12.424C136.404 12.8827 136.548 13.2027 136.836 13.384C137.124 13.5547 137.513 13.64 138.004 13.64ZM137.844 6.424C138.484 6.424 139.023 6.504 139.46 6.664C139.897 6.824 140.244 7.048 140.5 7.336C140.767 7.624 140.953 7.976 141.06 8.392C141.177 8.79733 141.236 9.24533 141.236 9.736V14.808C140.937 14.872 140.484 14.9467 139.876 15.032C139.279 15.128 138.601 15.176 137.844 15.176C137.343 15.176 136.884 15.128 136.468 15.032C136.052 14.936 135.695 14.7813 135.396 14.568C135.108 14.3547 134.879 14.0773 134.708 13.736C134.548 13.3947 134.468 12.9733 134.468 12.472C134.468 11.992 134.559 11.5867 134.74 11.256C134.932 10.9253 135.188 10.6587 135.508 10.456C135.828 10.2427 136.196 10.0933 136.612 10.008C137.039 9.912 137.481 9.864 137.94 9.864C138.153 9.864 138.377 9.88 138.612 9.912C138.847 9.93333 139.097 9.976 139.364 10.04V9.72C139.364 9.496 139.337 9.28267 139.284 9.08C139.231 8.87733 139.135 8.70133 138.996 8.552C138.868 8.392 138.692 8.26933 138.468 8.184C138.255 8.09867 137.983 8.056 137.652 8.056C137.204 8.056 136.793 8.088 136.42 8.152C136.047 8.216 135.743 8.29067 135.508 8.376L135.268 6.808C135.513 6.72267 135.871 6.63733 136.34 6.552C136.809 6.46667 137.311 6.424 137.844 6.424ZM145.127 10.792C145.127 11.6453 145.33 12.3173 145.735 12.808C146.14 13.288 146.7 13.528 147.415 13.528C147.724 13.528 147.986 13.5173 148.199 13.496C148.423 13.464 148.604 13.432 148.743 13.4V8.6C148.572 8.48267 148.343 8.376 148.055 8.28C147.778 8.17333 147.479 8.12 147.159 8.12C146.455 8.12 145.938 8.36 145.607 8.84C145.287 9.32 145.127 9.97067 145.127 10.792ZM150.679 14.744C150.295 14.8613 149.81 14.968 149.223 15.064C148.647 15.16 148.039 15.208 147.399 15.208C146.738 15.208 146.146 15.1067 145.623 14.904C145.1 14.7013 144.652 14.4133 144.279 14.04C143.916 13.656 143.634 13.1973 143.431 12.664C143.239 12.12 143.143 11.512 143.143 10.84C143.143 10.1787 143.223 9.58133 143.383 9.048C143.554 8.504 143.799 8.04 144.119 7.656C144.439 7.272 144.828 6.97867 145.287 6.776C145.746 6.56267 146.274 6.456 146.871 6.456C147.276 6.456 147.634 6.504 147.943 6.6C148.252 6.696 148.519 6.80267 148.743 6.92V2.904L150.679 2.584V14.744ZM152.674 10.856C152.674 10.12 152.781 9.47467 152.994 8.92C153.218 8.36533 153.512 7.90667 153.874 7.544C154.237 7.17067 154.653 6.89333 155.122 6.712C155.592 6.52 156.072 6.424 156.562 6.424C157.714 6.424 158.61 6.78133 159.25 7.496C159.901 8.21067 160.226 9.27733 160.226 10.696C160.226 10.8027 160.221 10.9253 160.21 11.064C160.21 11.192 160.205 11.3093 160.194 11.416H154.674C154.728 12.088 154.962 12.6107 155.378 12.984C155.805 13.3467 156.418 13.528 157.218 13.528C157.688 13.528 158.114 13.4853 158.498 13.4C158.893 13.3147 159.202 13.224 159.426 13.128L159.682 14.712C159.576 14.7653 159.426 14.824 159.234 14.888C159.053 14.9413 158.84 14.9893 158.594 15.032C158.36 15.0853 158.104 15.128 157.826 15.16C157.549 15.192 157.266 15.208 156.978 15.208C156.242 15.208 155.602 15.1013 155.058 14.888C154.514 14.664 154.066 14.36 153.714 13.976C153.362 13.5813 153.101 13.1227 152.93 12.6C152.76 12.0667 152.674 11.4853 152.674 10.856ZM158.29 9.992C158.29 9.72533 158.253 9.47467 158.178 9.24C158.104 8.99467 157.992 8.78667 157.842 8.616C157.704 8.43467 157.528 8.296 157.314 8.2C157.112 8.09333 156.866 8.04 156.578 8.04C156.28 8.04 156.018 8.09867 155.794 8.216C155.57 8.32267 155.378 8.46667 155.218 8.648C155.069 8.82933 154.952 9.03733 154.866 9.272C154.781 9.50667 154.722 9.74667 154.69 9.992H158.29ZM167.047 10.6C167.047 9.72533 166.935 9.096 166.711 8.712C166.498 8.31733 166.092 8.12 165.495 8.12C165.282 8.12 165.047 8.136 164.791 8.168C164.535 8.2 164.343 8.22667 164.215 8.248V15H162.279V6.904C162.652 6.79733 163.138 6.696 163.735 6.6C164.343 6.504 164.983 6.456 165.655 6.456C166.231 6.456 166.7 6.53067 167.063 6.68C167.436 6.82933 167.746 7.02667 167.991 7.272C168.108 7.18667 168.258 7.096 168.439 7C168.62 6.904 168.823 6.81867 169.047 6.744C169.271 6.65867 169.506 6.58933 169.751 6.536C170.007 6.48267 170.263 6.456 170.519 6.456C171.17 6.456 171.703 6.552 172.119 6.744C172.546 6.92533 172.876 7.18667 173.111 7.528C173.356 7.85867 173.522 8.264 173.607 8.744C173.703 9.21333 173.751 9.73067 173.751 10.296V15H171.815V10.6C171.815 9.72533 171.708 9.096 171.495 8.712C171.282 8.31733 170.871 8.12 170.263 8.12C169.954 8.12 169.66 8.17333 169.383 8.28C169.106 8.376 168.898 8.472 168.759 8.568C168.844 8.83467 168.903 9.11733 168.935 9.416C168.967 9.71467 168.983 10.0347 168.983 10.376V15H167.047V10.6ZM182.705 6.632C181.841 9.81067 180.838 12.6907 179.697 15.272C179.483 15.752 179.265 16.1627 179.041 16.504C178.817 16.8453 178.566 17.128 178.289 17.352C178.011 17.576 177.702 17.736 177.361 17.832C177.019 17.9387 176.625 17.992 176.177 17.992C175.878 17.992 175.579 17.96 175.281 17.896C174.993 17.832 174.774 17.7627 174.625 17.688L174.977 16.136C175.361 16.2853 175.739 16.36 176.113 16.36C176.614 16.36 177.003 16.2373 177.281 15.992C177.569 15.7573 177.819 15.3893 178.033 14.888C177.425 13.7147 176.838 12.4347 176.273 11.048C175.718 9.66133 175.222 8.18933 174.785 6.632H176.849C176.955 7.08 177.083 7.56533 177.233 8.088C177.393 8.61067 177.563 9.144 177.745 9.688C177.926 10.2213 178.118 10.7547 178.321 11.288C178.523 11.8213 178.726 12.3173 178.929 12.776C179.27 11.8267 179.59 10.8187 179.889 9.752C180.187 8.67467 180.459 7.63467 180.705 6.632H182.705Z" fill="white"/>
<path d="M63.688 19.456H64.464V25H63.688V19.456ZM77.6364 25C77.5191 24.8027 77.3831 24.5813 77.2284 24.336C77.0791 24.0907 76.9164 23.8373 76.7404 23.576C76.5644 23.3093 76.3804 23.04 76.1884 22.768C76.0018 22.496 75.8151 22.2347 75.6284 21.984C75.4418 21.728 75.2604 21.488 75.0844 21.264C74.9084 21.04 74.7458 20.8427 74.5964 20.672V25H73.8364V19.456H74.4524C74.7031 19.7227 74.9698 20.0347 75.2524 20.392C75.5404 20.744 75.8231 21.1093 76.1004 21.488C76.3831 21.8613 76.6471 22.2293 76.8924 22.592C77.1431 22.9547 77.3538 23.2773 77.5244 23.56V19.456H78.2844V25H77.6364ZM92.2088 22.224C92.2088 22.704 92.1341 23.1227 91.9848 23.48C91.8354 23.832 91.6248 24.1253 91.3528 24.36C91.0808 24.5893 90.7554 24.7627 90.3768 24.88C89.9981 24.992 89.5821 25.048 89.1288 25.048C88.9048 25.048 88.6568 25.0373 88.3848 25.016C88.1181 25 87.8754 24.9653 87.6568 24.912V19.536C87.8754 19.4827 88.1181 19.448 88.3848 19.432C88.6568 19.4107 88.9048 19.4 89.1288 19.4C89.5821 19.4 89.9981 19.4587 90.3768 19.576C90.7554 19.688 91.0808 19.8613 91.3528 20.096C91.6248 20.3253 91.8354 20.6187 91.9848 20.976C92.1341 21.328 92.2088 21.744 92.2088 22.224ZM89.1928 24.368C89.9288 24.368 90.4781 24.1813 90.8408 23.808C91.2034 23.4293 91.3848 22.9013 91.3848 22.224C91.3848 21.5467 91.2034 21.0213 90.8408 20.648C90.4781 20.2693 89.9288 20.08 89.1928 20.08C88.9741 20.08 88.8034 20.0827 88.6808 20.088C88.5634 20.0933 88.4808 20.0987 88.4328 20.104V24.344C88.4808 24.3493 88.5634 24.3547 88.6808 24.36C88.8034 24.3653 88.9741 24.368 89.1928 24.368ZM101.136 22.224C101.136 21.7493 101.205 21.3307 101.344 20.968C101.488 20.6053 101.68 20.304 101.92 20.064C102.165 19.8187 102.448 19.6347 102.768 19.512C103.093 19.3893 103.437 19.328 103.8 19.328C104.157 19.328 104.493 19.3893 104.808 19.512C105.128 19.6347 105.408 19.8187 105.648 20.064C105.888 20.304 106.077 20.6053 106.216 20.968C106.36 21.3307 106.432 21.7493 106.432 22.224C106.432 22.6987 106.36 23.1173 106.216 23.48C106.077 23.8427 105.888 24.1467 105.648 24.392C105.408 24.632 105.128 24.8133 104.808 24.936C104.493 25.0587 104.157 25.12 103.8 25.12C103.437 25.12 103.093 25.0587 102.768 24.936C102.448 24.8133 102.165 24.632 101.92 24.392C101.68 24.1467 101.488 23.8427 101.344 23.48C101.205 23.1173 101.136 22.6987 101.136 22.224ZM101.952 22.224C101.952 22.56 101.995 22.8667 102.08 23.144C102.165 23.416 102.285 23.648 102.44 23.84C102.6 24.032 102.792 24.1813 103.016 24.288C103.245 24.3893 103.501 24.44 103.784 24.44C104.067 24.44 104.32 24.3893 104.544 24.288C104.768 24.1813 104.957 24.032 105.112 23.84C105.272 23.648 105.395 23.416 105.48 23.144C105.565 22.8667 105.608 22.56 105.608 22.224C105.608 21.888 105.565 21.584 105.48 21.312C105.395 21.0347 105.272 20.8 105.112 20.608C104.957 20.416 104.768 20.2693 104.544 20.168C104.32 20.0613 104.067 20.008 103.784 20.008C103.501 20.008 103.245 20.0613 103.016 20.168C102.792 20.2693 102.6 20.416 102.44 20.608C102.285 20.8 102.165 21.0347 102.08 21.312C101.995 21.584 101.952 21.888 101.952 22.224ZM119.386 25C119.269 24.8027 119.133 24.5813 118.978 24.336C118.829 24.0907 118.666 23.8373 118.49 23.576C118.314 23.3093 118.13 23.04 117.938 22.768C117.752 22.496 117.565 22.2347 117.378 21.984C117.192 21.728 117.01 21.488 116.834 21.264C116.658 21.04 116.496 20.8427 116.346 20.672V25H115.586V19.456H116.202C116.453 19.7227 116.72 20.0347 117.002 20.392C117.29 20.744 117.573 21.1093 117.85 21.488C118.133 21.8613 118.397 22.2293 118.642 22.592C118.893 22.9547 119.104 23.2773 119.274 23.56V19.456H120.034V25H119.386ZM129.407 25V19.456H132.791V20.12H130.183V21.768H132.503V22.416H130.183V24.336H132.991V25H129.407ZM143.265 24.448C144.076 24.448 144.481 24.1707 144.481 23.616C144.481 23.4453 144.444 23.3013 144.369 23.184C144.3 23.0613 144.204 22.9573 144.081 22.872C143.958 22.7813 143.817 22.704 143.657 22.64C143.502 22.576 143.337 22.512 143.161 22.448C142.958 22.3787 142.766 22.3013 142.585 22.216C142.404 22.1253 142.246 22.0213 142.113 21.904C141.98 21.7813 141.873 21.6373 141.793 21.472C141.718 21.3067 141.681 21.1067 141.681 20.872C141.681 20.3867 141.846 20.008 142.177 19.736C142.508 19.464 142.964 19.328 143.545 19.328C143.881 19.328 144.185 19.3653 144.457 19.44C144.734 19.5093 144.937 19.5867 145.065 19.672L144.817 20.304C144.705 20.2347 144.537 20.168 144.313 20.104C144.094 20.0347 143.838 20 143.545 20C143.396 20 143.257 20.016 143.129 20.048C143.001 20.08 142.889 20.128 142.793 20.192C142.697 20.256 142.62 20.3387 142.561 20.44C142.508 20.536 142.481 20.6507 142.481 20.784C142.481 20.9333 142.51 21.0587 142.569 21.16C142.628 21.2613 142.71 21.352 142.817 21.432C142.924 21.5067 143.046 21.576 143.185 21.64C143.329 21.704 143.486 21.768 143.657 21.832C143.897 21.928 144.116 22.024 144.313 22.12C144.516 22.216 144.689 22.3307 144.833 22.464C144.982 22.5973 145.097 22.7573 145.177 22.944C145.257 23.1253 145.297 23.3467 145.297 23.608C145.297 24.0933 145.118 24.4667 144.761 24.728C144.409 24.9893 143.91 25.12 143.265 25.12C143.046 25.12 142.844 25.104 142.657 25.072C142.476 25.0453 142.313 25.0133 142.169 24.976C142.025 24.9333 141.9 24.8907 141.793 24.848C141.692 24.8 141.612 24.76 141.553 24.728L141.785 24.088C141.908 24.1573 142.094 24.2347 142.345 24.32C142.596 24.4053 142.902 24.448 143.265 24.448ZM154.235 19.456H155.011V25H154.235V19.456ZM168.087 25C167.997 24.76 167.911 24.5253 167.831 24.296C167.751 24.0613 167.669 23.824 167.583 23.584H165.071L164.567 25H163.759C163.973 24.4133 164.173 23.872 164.359 23.376C164.546 22.8747 164.727 22.4 164.903 21.952C165.085 21.504 165.263 21.0773 165.439 20.672C165.615 20.2613 165.799 19.856 165.991 19.456H166.703C166.895 19.856 167.079 20.2613 167.255 20.672C167.431 21.0773 167.607 21.504 167.783 21.952C167.965 22.4 168.149 22.8747 168.335 23.376C168.522 23.872 168.722 24.4133 168.935 25H168.087ZM167.359 22.944C167.189 22.48 167.018 22.032 166.847 21.6C166.682 21.1627 166.509 20.744 166.327 20.344C166.141 20.744 165.962 21.1627 165.791 21.6C165.626 22.032 165.461 22.48 165.295 22.944H167.359Z" fill="white"/>
<path d="M40.1433 4.53752C39.6717 2.75145 38.2824 1.3448 36.5184 0.867432C33.3211 0 20.5 0 20.5 0C20.5 0 7.67901 0 4.48157 0.867432C2.71757 1.34488 1.32827 2.75145 0.856735 4.53752C0 7.77487 0 14.5293 0 14.5293C0 14.5293 0 21.2837 0.856735 24.5211C1.32827 26.3072 2.71757 27.6552 4.48157 28.1326C7.67901 29 20.5 29 20.5 29C20.5 29 33.321 29 36.5184 28.1326C38.2824 27.6552 39.6717 26.3072 40.1433 24.5211C41 21.2837 41 14.5293 41 14.5293C41 14.5293 41 7.77487 40.1433 4.53752ZM16.3068 20.6618V8.39678L27.0227 14.5295L16.3068 20.6618Z" fill="white"/>
</svg>
