<svg width="136" height="30" viewBox="0 0 136 30" fill="none" xmlns="http://www.w3.org/2000/svg">
<path d="M8.90875 5.71716C10.6204 5.68993 13.808 4.50839 12.8652 0C11.0413 0.190572 7.69657 1.6008 8.90875 5.71716Z" fill="white"/>
<path d="M0.0699184 21.5619V1.38845H7.39352V7.51398C2.20807 9.80084 2.5953 14.4018 3.43709 16.4164L0.0699184 21.5619Z" fill="white"/>
<path fill-rule="evenodd" clip-rule="evenodd" d="M4.78396 29.4025C7.84248 29.2392 14.2289 28.2428 15.3064 25.5639C14.6355 25.8212 14.063 26.0701 13.5062 26.3122C11.059 27.3761 8.91617 28.3077 0.0699184 29.2392C-0.21068 27.3335 0.204605 22.1826 4.11053 16.8248C3.24067 13.694 3.99267 7.56298 13.9595 8.08569C14.0998 11.1076 12.983 17.1678 7.39352 17.2331V22.8686C6.07471 23.1137 3.0667 24.3388 1.58515 27.279C2.5953 26.19 5.40689 23.8977 8.57203 23.4403C9.43366 23.3971 10.3288 23.3768 11.2241 23.3564C15.4017 23.2615 19.5807 23.1665 20.3571 20.7451C20.1607 24.7743 16.7711 32.1468 4.78396 29.4025ZM5.62575 15.763C5.79411 15.028 6.65274 13.4598 8.74039 13.0678C11.1702 12.6115 11.8484 10.5266 12.1342 9.64816C12.1554 9.58317 12.1743 9.52478 12.1917 9.47415C11.6294 9.73753 10.9331 9.91424 10.2047 10.0991C7.77071 10.7168 4.97786 11.4256 5.62575 15.763Z" fill="white"/>
<path d="M35.3715 11.5141C35.3715 12.193 35.2983 12.8253 35.1519 13.411C35.0054 13.9967 34.7459 14.5091 34.3731 14.9484C34.0137 15.3877 33.5212 15.7338 32.8956 15.9867C32.2833 16.2396 31.5046 16.3661 30.5595 16.3661C29.6809 16.3661 28.9155 16.2463 28.2633 16.0067C27.6243 15.7538 27.1318 15.4875 26.7857 15.208L27.6842 13.2313C28.017 13.4576 28.423 13.6772 28.9022 13.8902C29.3947 14.0898 29.8939 14.1897 30.3997 14.1897C31.2516 14.1897 31.8706 13.9767 32.2566 13.5507C32.6427 13.1248 32.8357 12.3927 32.8357 11.3544V2.22949H35.3715V11.5141Z" fill="white"/>
<path d="M42.1342 14.3694C42.8796 14.3694 43.4454 14.3294 43.8314 14.2496V11.574C43.6983 11.5341 43.5053 11.4941 43.2523 11.4542C42.9994 11.4143 42.7199 11.3943 42.4137 11.3943C42.1475 11.3943 41.8746 11.4143 41.5951 11.4542C41.3289 11.4941 41.0826 11.5674 40.8563 11.6738C40.6433 11.7803 40.4703 11.9334 40.3372 12.1331C40.2041 12.3194 40.1375 12.559 40.1375 12.8519C40.1375 13.4243 40.3172 13.8236 40.6766 14.0499C41.036 14.2629 41.5219 14.3694 42.1342 14.3694ZM41.9345 5.3643C42.7332 5.3643 43.4054 5.46413 43.9512 5.6638C44.4969 5.86347 44.9296 6.14301 45.249 6.50241C45.5818 6.86182 45.8148 7.30109 45.9479 7.82023C46.0943 8.32606 46.1675 8.88513 46.1675 9.49745V15.827C45.7948 15.9068 45.2291 16 44.4703 16.1065C43.7249 16.2263 42.8796 16.2862 41.9345 16.2862C41.3089 16.2862 40.7365 16.2263 40.2174 16.1065C39.6982 15.9867 39.2523 15.7937 38.8796 15.5275C38.5202 15.2612 38.234 14.9151 38.021 14.4892C37.8213 14.0632 37.7215 13.5374 37.7215 12.9118C37.7215 12.3128 37.8346 11.807 38.0609 11.3943C38.3005 10.9817 38.62 10.6489 39.0194 10.396C39.4187 10.1297 39.8779 9.94338 40.3971 9.83689C40.9295 9.71709 41.4819 9.65719 42.0543 9.65719C42.3205 9.65719 42.6001 9.67715 42.8929 9.71709C43.1858 9.74371 43.4986 9.79696 43.8314 9.87682V9.47749C43.8314 9.19795 43.7981 8.93172 43.7315 8.67881C43.665 8.42589 43.5452 8.20626 43.3721 8.0199C43.2124 7.82023 42.9928 7.66715 42.7132 7.56066C42.447 7.45417 42.1076 7.40093 41.6949 7.40093C41.1358 7.40093 40.6234 7.44086 40.1575 7.52073C39.6916 7.60059 39.3122 7.69377 39.0194 7.80026L38.7198 5.84351C39.026 5.73702 39.4719 5.63053 40.0576 5.52404C40.6433 5.41754 41.269 5.3643 41.9345 5.3643Z" fill="white"/>
<path d="M57.3986 5.62387C56.3204 9.59063 55.0691 13.1847 53.6448 16.406C53.3786 17.005 53.1057 17.5175 52.8262 17.9435C52.5466 18.3694 52.2338 18.7222 51.8877 19.0017C51.5416 19.2812 51.1556 19.4809 50.7296 19.6007C50.3037 19.7338 49.8112 19.8004 49.2521 19.8004C48.8794 19.8004 48.5067 19.7605 48.1339 19.6806C47.7745 19.6007 47.5017 19.5142 47.3153 19.421L47.7546 17.4842C48.2338 17.6706 48.7063 17.7638 49.1722 17.7638C49.7978 17.7638 50.2837 17.6107 50.6298 17.3045C50.9892 17.0117 51.302 16.5524 51.5682 15.9268C50.8095 14.4626 50.0774 12.8652 49.3719 11.1347C48.6797 9.40427 48.0607 7.56732 47.515 5.62387H50.0907C50.2238 6.18294 50.3835 6.78861 50.5699 7.44086C50.7696 8.09311 50.9826 8.75868 51.2088 9.43755C51.4351 10.1031 51.6747 10.7687 51.9277 11.4342C52.1806 12.0998 52.4335 12.7188 52.6864 13.2912C53.1124 12.1065 53.5117 10.8485 53.8844 9.51742C54.2571 8.17298 54.5966 6.87513 54.9027 5.62387H57.3986Z" fill="white"/>
<path d="M62.9006 14.3694C63.646 14.3694 64.2117 14.3294 64.5978 14.2496V11.574C64.4646 11.5341 64.2716 11.4941 64.0187 11.4542C63.7658 11.4143 63.4863 11.3943 63.1801 11.3943C62.9139 11.3943 62.641 11.4143 62.3615 11.4542C62.0952 11.4941 61.849 11.5674 61.6227 11.6738C61.4097 11.7803 61.2367 11.9334 61.1035 12.1331C60.9704 12.3194 60.9039 12.559 60.9039 12.8519C60.9039 13.4243 61.0836 13.8236 61.443 14.0499C61.8024 14.2629 62.2883 14.3694 62.9006 14.3694ZM62.7009 5.3643C63.4996 5.3643 64.1718 5.46413 64.7176 5.6638C65.2633 5.86347 65.6959 6.14301 66.0154 6.50241C66.3482 6.86182 66.5811 7.30109 66.7143 7.82023C66.8607 8.32606 66.9339 8.88513 66.9339 9.49745V15.827C66.5612 15.9068 65.9954 16 65.2367 16.1065C64.4913 16.2263 63.646 16.2862 62.7009 16.2862C62.0753 16.2862 61.5029 16.2263 60.9837 16.1065C60.4646 15.9867 60.0187 15.7937 59.646 15.5275C59.2866 15.2612 59.0004 14.9151 58.7874 14.4892C58.5877 14.0632 58.4879 13.5374 58.4879 12.9118C58.4879 12.3128 58.601 11.807 58.8273 11.3943C59.0669 10.9817 59.3864 10.6489 59.7857 10.396C60.1851 10.1297 60.6443 9.94338 61.1634 9.83689C61.6959 9.71709 62.2483 9.65719 62.8207 9.65719C63.0869 9.65719 63.3665 9.67715 63.6593 9.71709C63.9522 9.74371 64.265 9.79696 64.5978 9.87682V9.47749C64.5978 9.19795 64.5645 8.93172 64.4979 8.67881C64.4314 8.42589 64.3116 8.20626 64.1385 8.0199C63.9788 7.82023 63.7591 7.66715 63.4796 7.56066C63.2134 7.45417 62.8739 7.40093 62.4613 7.40093C61.9022 7.40093 61.3897 7.44086 60.9238 7.52073C60.4579 7.60059 60.0786 7.69377 59.7857 7.80026L59.4862 5.84351C59.7924 5.73702 60.2383 5.63053 60.824 5.52404C61.4097 5.41754 62.0353 5.3643 62.7009 5.3643Z" fill="white"/>
<path d="M83.4181 13.8902V16.0666H74.6726V2.22949H77.1885V13.8902H83.4181Z" fill="white"/>
<path d="M84.4447 10.8951C84.4447 9.97666 84.5778 9.17133 84.8441 8.47914C85.1236 7.78695 85.4897 7.21457 85.9422 6.76198C86.3948 6.29609 86.914 5.95 87.4997 5.7237C88.0854 5.4841 88.6844 5.3643 89.2967 5.3643C90.7343 5.3643 91.8525 5.81023 92.6511 6.70208C93.4631 7.59394 93.8691 8.92507 93.8691 10.6955C93.8691 10.8286 93.8624 10.9817 93.8491 11.1547C93.8491 11.3144 93.8425 11.4609 93.8292 11.594H86.9406C87.0071 12.4326 87.3 13.0848 87.8191 13.5507C88.3516 14.0033 89.117 14.2296 90.1153 14.2296C90.701 14.2296 91.2335 14.1764 91.7127 14.0699C92.2052 13.9634 92.5912 13.8502 92.8708 13.7304L93.1902 15.7072C93.0571 15.7737 92.8708 15.8469 92.6312 15.9268C92.4049 15.9934 92.1386 16.0533 91.8325 16.1065C91.5396 16.1731 91.2202 16.2263 90.8741 16.2662C90.528 16.3062 90.1752 16.3261 89.8158 16.3261C88.8973 16.3261 88.0987 16.193 87.4198 15.9268C86.7409 15.6473 86.1818 15.2679 85.7426 14.7887C85.3033 14.2962 84.9772 13.7238 84.7642 13.0715C84.5512 12.406 84.4447 11.6805 84.4447 10.8951ZM91.4531 9.81692C91.4531 9.48414 91.4065 9.17133 91.3133 8.87848C91.2202 8.57232 91.0804 8.31275 90.894 8.09977C90.721 7.87348 90.5014 7.70043 90.2351 7.58063C89.9822 7.44751 89.6761 7.38096 89.3166 7.38096C88.9439 7.38096 88.6178 7.45417 88.3383 7.60059C88.0587 7.73371 87.8191 7.91341 87.6195 8.1397C87.4331 8.36599 87.2867 8.62556 87.1802 8.91841C87.0737 9.21126 87.0005 9.51076 86.9606 9.81692H91.4531Z" fill="white"/>
<path d="M99.0463 14.3294C99.6853 14.3294 100.151 14.2562 100.444 14.1098C100.737 13.9501 100.883 13.6838 100.883 13.3111C100.883 12.965 100.724 12.6788 100.404 12.4526C100.098 12.2263 99.5854 11.98 98.8666 11.7138C98.4273 11.554 98.0213 11.3877 97.6486 11.2146C97.2892 11.0282 96.9764 10.8153 96.7102 10.5757C96.444 10.3361 96.231 10.0499 96.0712 9.71709C95.9248 9.37099 95.8516 8.95169 95.8516 8.45917C95.8516 7.50076 96.2044 6.74867 96.9099 6.20291C97.6153 5.64384 98.5738 5.3643 99.7851 5.3643C100.397 5.3643 100.983 5.4242 101.542 5.544C102.101 5.65049 102.521 5.75698 102.8 5.86347L102.361 7.82023C102.095 7.70043 101.755 7.59394 101.343 7.50076C100.93 7.39427 100.451 7.34103 99.9049 7.34103C99.4124 7.34103 99.013 7.42755 98.7069 7.60059C98.4007 7.76033 98.2476 8.01324 98.2476 8.35934C98.2476 8.53238 98.2743 8.68546 98.3275 8.81858C98.3941 8.95169 98.5005 9.07815 98.647 9.19795C98.7934 9.30444 98.9864 9.41758 99.226 9.53739C99.4656 9.64388 99.7585 9.75702 100.105 9.87682C100.677 10.0898 101.163 10.3028 101.562 10.5158C101.961 10.7154 102.288 10.9484 102.541 11.2146C102.807 11.4675 103 11.7604 103.12 12.0932C103.239 12.4259 103.299 12.8253 103.299 13.2912C103.299 14.2895 102.927 15.0483 102.181 15.5674C101.449 16.0732 100.397 16.3261 99.0263 16.3261C98.1079 16.3261 97.3691 16.2463 96.81 16.0865C96.2509 15.9401 95.8583 15.8203 95.632 15.7271L96.0513 13.7105C96.4107 13.8569 96.8366 13.9967 97.3292 14.1298C97.835 14.2629 98.4074 14.3294 99.0463 14.3294Z" fill="white"/>
<path d="M105.436 2.86843L107.852 2.4691V5.62387H111.566V7.64053H107.852V11.8935C107.852 12.7321 107.985 13.3311 108.252 13.6905C108.518 14.0499 108.97 14.2296 109.609 14.2296C110.049 14.2296 110.435 14.183 110.768 14.0898C111.114 13.9967 111.386 13.9101 111.586 13.8303L111.985 15.7471C111.706 15.8669 111.34 15.9867 110.887 16.1065C110.435 16.2396 109.902 16.3062 109.29 16.3062C108.545 16.3062 107.919 16.2063 107.413 16.0067C106.921 15.807 106.528 15.5208 106.235 15.1481C105.942 14.7621 105.736 14.3028 105.616 13.7704C105.496 13.2246 105.436 12.6056 105.436 11.9135V2.86843Z" fill="white"/>
<path d="M117.576 14.3694C118.321 14.3694 118.887 14.3294 119.273 14.2496V11.574C119.14 11.5341 118.947 11.4941 118.694 11.4542C118.441 11.4143 118.161 11.3943 117.855 11.3943C117.589 11.3943 117.316 11.4143 117.037 11.4542C116.77 11.4941 116.524 11.5674 116.298 11.6738C116.085 11.7803 115.912 11.9334 115.779 12.1331C115.645 12.3194 115.579 12.559 115.579 12.8519C115.579 13.4243 115.759 13.8236 116.118 14.0499C116.477 14.2629 116.963 14.3694 117.576 14.3694ZM117.376 5.3643C118.175 5.3643 118.847 5.46413 119.393 5.6638C119.938 5.86347 120.371 6.14301 120.69 6.50241C121.023 6.86182 121.256 7.30109 121.389 7.82023C121.536 8.32606 121.609 8.88513 121.609 9.49745V15.827C121.236 15.9068 120.67 16 119.912 16.1065C119.166 16.2263 118.321 16.2862 117.376 16.2862C116.75 16.2862 116.178 16.2263 115.659 16.1065C115.14 15.9867 114.694 15.7937 114.321 15.5275C113.962 15.2612 113.675 14.9151 113.462 14.4892C113.263 14.0632 113.163 13.5374 113.163 12.9118C113.163 12.3128 113.276 11.807 113.502 11.3943C113.742 10.9817 114.061 10.6489 114.461 10.396C114.86 10.1297 115.319 9.94338 115.838 9.83689C116.371 9.71709 116.923 9.65719 117.496 9.65719C117.762 9.65719 118.042 9.67715 118.334 9.71709C118.627 9.74371 118.94 9.79696 119.273 9.87682V9.47749C119.273 9.19795 119.24 8.93172 119.173 8.67881C119.106 8.42589 118.987 8.20626 118.814 8.0199C118.654 7.82023 118.434 7.66715 118.155 7.56066C117.888 7.45417 117.549 7.40093 117.136 7.40093C116.577 7.40093 116.065 7.44086 115.599 7.52073C115.133 7.60059 114.754 7.69377 114.461 7.80026L114.161 5.84351C114.467 5.73702 114.913 5.63053 115.499 5.52404C116.085 5.41754 116.71 5.3643 117.376 5.3643Z" fill="white"/>
<path d="M130.518 7.80026C130.318 7.73371 130.039 7.66715 129.679 7.60059C129.333 7.52073 128.927 7.48079 128.461 7.48079C128.195 7.48079 127.909 7.50742 127.603 7.56066C127.31 7.61391 127.103 7.6605 126.984 7.70043V16.0666H124.568V6.12304C125.034 5.95 125.613 5.79026 126.305 5.64384C127.01 5.4841 127.789 5.40423 128.641 5.40423C128.801 5.40423 128.987 5.41754 129.2 5.44417C129.413 5.45748 129.626 5.4841 129.839 5.52404C130.052 5.55066 130.258 5.59059 130.458 5.64384C130.658 5.68377 130.817 5.7237 130.937 5.76364L130.518 7.80026Z" fill="white"/>
<path d="M135.057 16.0666H132.641V5.62387H135.057V16.0666ZM135.316 2.56893C135.316 3.02151 135.17 3.38092 134.877 3.64714C134.584 3.91337 134.238 4.04648 133.839 4.04648C133.426 4.04648 133.073 3.91337 132.78 3.64714C132.488 3.38092 132.341 3.02151 132.341 2.56893C132.341 2.10304 132.488 1.73698 132.78 1.47075C133.073 1.20452 133.426 1.07141 133.839 1.07141C134.238 1.07141 134.584 1.20452 134.877 1.47075C135.17 1.73698 135.316 2.10304 135.316 2.56893Z" fill="white"/>
<path d="M30.3548 25.5592C30.3548 25.0545 30.23 24.6662 29.9804 24.3944C29.7308 24.1227 29.3981 23.9868 28.9821 23.9868C28.7491 23.9868 28.5661 23.9951 28.433 24.0117C28.3054 24.0284 28.2028 24.0478 28.1252 24.07V26.7988C28.2194 26.8764 28.3553 26.9513 28.5328 27.0234C28.7103 27.0955 28.9044 27.1316 29.1152 27.1316C29.337 27.1316 29.5256 27.0927 29.6809 27.0151C29.8418 26.9319 29.9721 26.821 30.0719 26.6823C30.1718 26.5381 30.2439 26.3717 30.2882 26.1831C30.3326 25.989 30.3548 25.781 30.3548 25.5592ZM31.1618 25.5592C31.1618 25.8864 31.1174 26.1887 31.0287 26.466C30.9455 26.7433 30.8207 26.9818 30.6543 27.1815C30.4879 27.3812 30.2827 27.5365 30.0387 27.6474C29.8002 27.7583 29.5256 27.8138 29.215 27.8138C28.9654 27.8138 28.7436 27.7805 28.5495 27.7139C28.3609 27.6474 28.2194 27.5836 28.1252 27.5226V29.2531H27.3514V23.5209C27.5345 23.4765 27.7619 23.4294 28.0336 23.3795C28.311 23.324 28.6299 23.2963 28.9904 23.2963C29.3232 23.2963 29.6227 23.3489 29.8889 23.4543C30.1551 23.5597 30.3825 23.7095 30.5711 23.9036C30.7597 24.0977 30.9039 24.3362 31.0037 24.6191C31.1091 24.8964 31.1618 25.2098 31.1618 25.5592Z" fill="white"/>
<path d="M35.595 23.2963C35.6616 23.2963 35.7364 23.3018 35.8196 23.3129C35.9084 23.3184 35.9944 23.3295 36.0775 23.3462C36.1607 23.3573 36.2356 23.3711 36.3022 23.3878C36.3743 23.3989 36.427 23.41 36.4602 23.4211L36.3271 24.0949C36.2661 24.0728 36.1635 24.0478 36.0193 24.0201C35.8806 23.9868 35.7004 23.9701 35.4785 23.9701C35.3343 23.9701 35.1901 23.9868 35.0459 24.0201C34.9073 24.0478 34.8157 24.0672 34.7714 24.0783V27.7139H33.9977V23.5708C34.1807 23.5042 34.4081 23.4432 34.6799 23.3878C34.9516 23.3268 35.2567 23.2963 35.595 23.2963Z" fill="white"/>
<path d="M39.7277 27.7139H38.954V23.3878H39.7277V27.7139ZM39.3367 22.6057C39.198 22.6057 39.0788 22.5614 38.9789 22.4726C38.8846 22.3783 38.8375 22.2535 38.8375 22.0982C38.8375 21.9429 38.8846 21.8209 38.9789 21.7322C39.0788 21.6379 39.198 21.5908 39.3367 21.5908C39.4753 21.5908 39.5918 21.6379 39.6861 21.7322C39.7859 21.8209 39.8358 21.9429 39.8358 22.0982C39.8358 22.2535 39.7859 22.3783 39.6861 22.4726C39.5918 22.5614 39.4753 22.6057 39.3367 22.6057Z" fill="white"/>
<path d="M42.8053 23.5126C42.9828 23.4682 43.2185 23.4211 43.5125 23.3711C43.8065 23.3212 44.1448 23.2963 44.5275 23.2963C44.8714 23.2963 45.157 23.3462 45.3844 23.446C45.6118 23.5403 45.7921 23.6762 45.9252 23.8537C46.0638 24.0256 46.1609 24.2336 46.2163 24.4776C46.2718 24.7217 46.2995 24.9907 46.2995 25.2846V27.7139H45.5258V25.451C45.5258 25.1848 45.5064 24.9574 45.4676 24.7688C45.4343 24.5802 45.3761 24.4277 45.2929 24.3112C45.2097 24.1948 45.0988 24.1116 44.9601 24.0617C44.8214 24.0062 44.6495 23.9785 44.4443 23.9785C44.3611 23.9785 44.2751 23.9812 44.1864 23.9868C44.0976 23.9923 44.0117 24.0006 43.9285 24.0117C43.8508 24.0173 43.7787 24.0256 43.7122 24.0367C43.6512 24.0478 43.6068 24.0561 43.5791 24.0617V27.7139H42.8053V23.5126Z" fill="white"/>
<path d="M50.0535 23.3878H51.6924V24.0367H50.0535V26.0334C50.0535 26.2497 50.0701 26.43 50.1034 26.5742C50.1367 26.7128 50.1866 26.8237 50.2531 26.9069C50.3197 26.9846 50.4029 27.0401 50.5027 27.0733C50.6026 27.1066 50.719 27.1233 50.8522 27.1233C51.0851 27.1233 51.2709 27.0983 51.4096 27.0484C51.5538 26.9929 51.6536 26.9541 51.7091 26.9319L51.8588 27.5725C51.7812 27.6113 51.6453 27.6585 51.4512 27.7139C51.257 27.775 51.0352 27.8055 50.7856 27.8055C50.4916 27.8055 50.2476 27.7694 50.0535 27.6973C49.8649 27.6197 49.7124 27.506 49.5959 27.3562C49.4794 27.2064 49.3962 27.0234 49.3463 26.8071C49.3019 26.5853 49.2798 26.3301 49.2798 26.0417V22.1814L50.0535 22.0483V23.3878Z" fill="white"/>
<path d="M58.8704 27.7139H58.0967V23.3878H58.8704V27.7139ZM58.4794 22.6057C58.3408 22.6057 58.2215 22.5614 58.1217 22.4726C58.0274 22.3783 57.9803 22.2535 57.9803 22.0982C57.9803 21.9429 58.0274 21.8209 58.1217 21.7322C58.2215 21.6379 58.3408 21.5908 58.4794 21.5908C58.6181 21.5908 58.7346 21.6379 58.8289 21.7322C58.9287 21.8209 58.9786 21.9429 58.9786 22.0982C58.9786 22.2535 58.9287 22.3783 58.8289 22.4726C58.7346 22.5614 58.6181 22.6057 58.4794 22.6057Z" fill="white"/>
<path d="M61.9481 23.5126C62.1256 23.4682 62.3613 23.4211 62.6553 23.3711C62.9492 23.3212 63.2875 23.2963 63.6702 23.2963C64.0141 23.2963 64.2998 23.3462 64.5272 23.446C64.7546 23.5403 64.9348 23.6762 65.0679 23.8537C65.2066 24.0256 65.3036 24.2336 65.3591 24.4776C65.4146 24.7217 65.4423 24.9907 65.4423 25.2846V27.7139H64.6686V25.451C64.6686 25.1848 64.6492 24.9574 64.6104 24.7688C64.5771 24.5802 64.5188 24.4277 64.4356 24.3112C64.3524 24.1948 64.2415 24.1116 64.1029 24.0617C63.9642 24.0062 63.7923 23.9785 63.5871 23.9785C63.5039 23.9785 63.4179 23.9812 63.3291 23.9868C63.2404 23.9923 63.1544 24.0006 63.0712 24.0117C62.9936 24.0173 62.9215 24.0256 62.8549 24.0367C62.7939 24.0478 62.7495 24.0561 62.7218 24.0617V27.7139H61.9481V23.5126Z" fill="white"/>
<path d="M71.2678 24.3029C71.1735 24.2253 71.0376 24.1504 70.8602 24.0783C70.6827 24.0062 70.4885 23.9701 70.2778 23.9701C70.0559 23.9701 69.8646 24.0117 69.7037 24.0949C69.5484 24.1726 69.4209 24.2835 69.321 24.4277C69.2212 24.5664 69.1491 24.7328 69.1047 24.9269C69.0604 25.121 69.0382 25.329 69.0382 25.5509C69.0382 26.0556 69.163 26.4466 69.4126 26.7239C69.6621 26.9957 69.9949 27.1316 70.4109 27.1316C70.6217 27.1316 70.7964 27.1233 70.935 27.1066C71.0792 27.0844 71.1902 27.0622 71.2678 27.0401V24.3029ZM71.2678 21.3911L72.0415 21.258V27.5891C71.864 27.6391 71.6366 27.689 71.3593 27.7389C71.082 27.7888 70.7631 27.8138 70.4026 27.8138C70.0698 27.8138 69.7703 27.7611 69.5041 27.6557C69.2378 27.5503 69.0104 27.4006 68.8219 27.2064C68.6333 27.0123 68.4863 26.7766 68.3809 26.4993C68.2811 26.2164 68.2312 25.9003 68.2312 25.5509C68.2312 25.2181 68.2728 24.913 68.356 24.6357C68.4447 24.3584 68.5723 24.1199 68.7387 23.9202C68.9051 23.7206 69.1075 23.5653 69.346 23.4543C69.59 23.3434 69.8674 23.2879 70.178 23.2879C70.4275 23.2879 70.6466 23.3212 70.8352 23.3878C71.0293 23.4543 71.1735 23.5181 71.2678 23.5791V21.3911Z" fill="white"/>
<path d="M78.9373 25.5509C78.9373 25.8947 78.8874 26.2053 78.7876 26.4826C78.6877 26.76 78.5463 26.9985 78.3633 27.1981C78.1858 27.3978 77.9723 27.5531 77.7227 27.664C77.4731 27.7694 77.2013 27.8221 76.9074 27.8221C76.6134 27.8221 76.3416 27.7694 76.092 27.664C75.8425 27.5531 75.6262 27.3978 75.4431 27.1981C75.2656 26.9985 75.127 26.76 75.0271 26.4826C74.9273 26.2053 74.8774 25.8947 74.8774 25.5509C74.8774 25.2125 74.9273 24.9047 75.0271 24.6274C75.127 24.3445 75.2656 24.1033 75.4431 23.9036C75.6262 23.7039 75.8425 23.5514 76.092 23.446C76.3416 23.3351 76.6134 23.2796 76.9074 23.2796C77.2013 23.2796 77.4731 23.3351 77.7227 23.446C77.9723 23.5514 78.1858 23.7039 78.3633 23.9036C78.5463 24.1033 78.6877 24.3445 78.7876 24.6274C78.8874 24.9047 78.9373 25.2125 78.9373 25.5509ZM78.1303 25.5509C78.1303 25.0628 78.0194 24.6773 77.7976 24.3944C77.5812 24.106 77.2845 23.9618 76.9074 23.9618C76.5302 23.9618 76.2307 24.106 76.0088 24.3944C75.7925 24.6773 75.6844 25.0628 75.6844 25.5509C75.6844 26.0389 75.7925 26.4272 76.0088 26.7156C76.2307 26.9985 76.5302 27.1399 76.9074 27.1399C77.2845 27.1399 77.5812 26.9985 77.7976 26.7156C78.0194 26.4272 78.1303 26.0389 78.1303 25.5509Z" fill="white"/>
<path d="M83.3704 23.2963C83.4369 23.2963 83.5118 23.3018 83.595 23.3129C83.6837 23.3184 83.7697 23.3295 83.8529 23.3462C83.9361 23.3573 84.011 23.3711 84.0775 23.3878C84.1496 23.3989 84.2023 23.41 84.2356 23.4211L84.1025 24.0949C84.0415 24.0728 83.9389 24.0478 83.7947 24.0201C83.656 23.9868 83.4757 23.9701 83.2539 23.9701C83.1097 23.9701 82.9655 23.9868 82.8213 24.0201C82.6826 24.0478 82.5911 24.0672 82.5467 24.0783V27.7139H81.773V23.5708C81.956 23.5042 82.1834 23.4432 82.4552 23.3878C82.727 23.3268 83.032 23.2963 83.3704 23.2963Z" fill="white"/>
<path d="M90.1191 26.1831C90.1191 25.9668 90.1523 25.7755 90.2189 25.6091C90.2855 25.4372 90.3742 25.2846 90.4851 25.1515C90.6016 25.0129 90.7347 24.8936 90.8845 24.7938C91.0342 24.6884 91.1895 24.5969 91.3504 24.5192C90.9399 24.1088 90.7347 23.6845 90.7347 23.2463C90.7347 23.0245 90.7708 22.8248 90.8429 22.6473C90.9205 22.4698 91.0231 22.3201 91.1507 22.1981C91.2838 22.0761 91.4391 21.9818 91.6166 21.9152C91.7996 21.8487 91.9993 21.8154 92.2156 21.8154C92.4374 21.8154 92.6343 21.8487 92.8063 21.9152C92.9838 21.9818 93.1307 22.0705 93.2472 22.1814C93.3692 22.2924 93.4608 22.4255 93.5218 22.5808C93.5828 22.7361 93.6133 22.8997 93.6133 23.0716C93.6133 23.2658 93.58 23.4405 93.5134 23.5958C93.4524 23.7511 93.3665 23.8925 93.2555 24.0201C93.1502 24.1476 93.0281 24.2641 92.8895 24.3695C92.7508 24.4749 92.6038 24.5692 92.4485 24.6523L93.7963 26.0251C93.9849 25.6756 94.1069 25.2874 94.1624 24.8603L94.803 24.9435C94.7808 25.1709 94.7226 25.4205 94.6283 25.6923C94.5395 25.9585 94.412 26.2247 94.2456 26.491C94.4397 26.7017 94.6172 26.9097 94.778 27.1149C94.9444 27.3201 95.0803 27.5198 95.1857 27.7139H94.3704C94.3038 27.603 94.2206 27.4893 94.1208 27.3728C94.0265 27.2564 93.9266 27.1399 93.8213 27.0234C93.5939 27.2508 93.3304 27.4366 93.0309 27.5808C92.7314 27.7195 92.3875 27.7888 91.9993 27.7888C91.6388 27.7888 91.3393 27.7389 91.1008 27.6391C90.8623 27.5337 90.6682 27.4033 90.5184 27.248C90.3742 27.0872 90.2716 26.9125 90.2106 26.7239C90.1496 26.5353 90.1191 26.3551 90.1191 26.1831ZM90.8928 26.1665C90.8928 26.2663 90.9122 26.3745 90.951 26.491C90.9898 26.6074 91.0536 26.7156 91.1424 26.8154C91.2311 26.9097 91.3448 26.9901 91.4835 27.0567C91.6277 27.1177 91.8052 27.1482 92.0159 27.1482C92.2877 27.1482 92.5373 27.0983 92.7647 26.9985C92.9976 26.8986 93.2028 26.7572 93.3803 26.5742L91.758 24.9352C91.6582 24.9851 91.5556 25.0434 91.4502 25.1099C91.3504 25.1765 91.2588 25.2597 91.1756 25.3595C91.0925 25.4538 91.0231 25.5675 90.9677 25.7006C90.9177 25.8337 90.8928 25.989 90.8928 26.1665ZM92.9144 23.0966C92.9144 22.908 92.8507 22.7499 92.7231 22.6224C92.6011 22.4893 92.4319 22.4227 92.2156 22.4227C91.9716 22.4227 91.783 22.4976 91.6499 22.6473C91.5223 22.7915 91.4585 22.9718 91.4585 23.1881C91.4585 23.5486 91.6471 23.9008 92.0242 24.2447C92.1463 24.1837 92.26 24.1171 92.3653 24.045C92.4763 23.9729 92.5706 23.8897 92.6482 23.7954C92.7314 23.7011 92.7952 23.5985 92.8396 23.4876C92.8895 23.3711 92.9144 23.2408 92.9144 23.0966Z" fill="white"/>
<path d="M105.181 25.5509C105.181 25.8947 105.131 26.2053 105.032 26.4826C104.932 26.76 104.79 26.9985 104.607 27.1981C104.43 27.3978 104.216 27.5531 103.967 27.664C103.717 27.7694 103.445 27.8221 103.151 27.8221C102.857 27.8221 102.586 27.7694 102.336 27.664C102.086 27.5531 101.87 27.3978 101.687 27.1981C101.51 26.9985 101.371 26.76 101.271 26.4826C101.171 26.2053 101.121 25.8947 101.121 25.5509C101.121 25.2125 101.171 24.9047 101.271 24.6274C101.371 24.3445 101.51 24.1033 101.687 23.9036C101.87 23.7039 102.086 23.5514 102.336 23.446C102.586 23.3351 102.857 23.2796 103.151 23.2796C103.445 23.2796 103.717 23.3351 103.967 23.446C104.216 23.5514 104.43 23.7039 104.607 23.9036C104.79 24.1033 104.932 24.3445 105.032 24.6274C105.131 24.9047 105.181 25.2125 105.181 25.5509ZM104.374 25.5509C104.374 25.0628 104.263 24.6773 104.042 24.3944C103.825 24.106 103.528 23.9618 103.151 23.9618C102.774 23.9618 102.475 24.106 102.253 24.3944C102.037 24.6773 101.928 25.0628 101.928 25.5509C101.928 26.0389 102.037 26.4272 102.253 26.7156C102.475 26.9985 102.774 27.1399 103.151 27.1399C103.528 27.1399 103.825 26.9985 104.042 26.7156C104.263 26.4272 104.374 26.0389 104.374 25.5509Z" fill="white"/>
<path d="M111.461 27.5891C111.284 27.6335 111.048 27.6807 110.754 27.7306C110.466 27.7805 110.13 27.8055 109.747 27.8055C109.415 27.8055 109.135 27.7583 108.907 27.664C108.68 27.5642 108.497 27.4255 108.358 27.248C108.219 27.0706 108.12 26.8626 108.059 26.6241C107.998 26.38 107.967 26.111 107.967 25.8171V23.3878H108.741V25.6507C108.741 26.1776 108.824 26.5547 108.99 26.7821C109.157 27.0096 109.437 27.1233 109.831 27.1233C109.914 27.1233 110 27.1205 110.089 27.1149C110.177 27.1094 110.26 27.1038 110.338 27.0983C110.416 27.0872 110.485 27.0789 110.546 27.0733C110.613 27.0622 110.66 27.0511 110.688 27.0401V23.3878H111.461V27.5891Z" fill="white"/>
<path d="M115.265 23.3878H116.904V24.0367H115.265V26.0334C115.265 26.2497 115.282 26.43 115.315 26.5742C115.348 26.7128 115.398 26.8237 115.465 26.9069C115.531 26.9846 115.615 27.0401 115.714 27.0733C115.814 27.1066 115.931 27.1233 116.064 27.1233C116.297 27.1233 116.483 27.0983 116.621 27.0484C116.765 26.9929 116.865 26.9541 116.921 26.9319L117.07 27.5725C116.993 27.6113 116.857 27.6585 116.663 27.7139C116.469 27.775 116.247 27.8055 115.997 27.8055C115.703 27.8055 115.459 27.7694 115.265 27.6973C115.077 27.6197 114.924 27.506 114.808 27.3562C114.691 27.2064 114.608 27.0234 114.558 26.8071C114.514 26.5853 114.491 26.3301 114.491 26.0417V22.1814L115.265 22.0483V23.3878Z" fill="white"/>
<path d="M122.317 24.3029C122.223 24.2253 122.087 24.1504 121.91 24.0783C121.732 24.0062 121.538 23.9701 121.327 23.9701C121.105 23.9701 120.914 24.0117 120.753 24.0949C120.598 24.1726 120.47 24.2835 120.371 24.4277C120.271 24.5664 120.199 24.7328 120.154 24.9269C120.11 25.121 120.088 25.329 120.088 25.5509C120.088 26.0556 120.213 26.4466 120.462 26.7239C120.712 26.9957 121.044 27.1316 121.46 27.1316C121.671 27.1316 121.846 27.1233 121.985 27.1066C122.129 27.0844 122.24 27.0622 122.317 27.0401V24.3029ZM122.317 21.3911L123.091 21.258V27.5891C122.914 27.6391 122.686 27.689 122.409 27.7389C122.132 27.7888 121.813 27.8138 121.452 27.8138C121.119 27.8138 120.82 27.7611 120.554 27.6557C120.287 27.5503 120.06 27.4006 119.871 27.2064C119.683 27.0123 119.536 26.7766 119.43 26.4993C119.331 26.2164 119.281 25.9003 119.281 25.5509C119.281 25.2181 119.322 24.913 119.406 24.6357C119.494 24.3584 119.622 24.1199 119.788 23.9202C119.955 23.7206 120.157 23.5653 120.396 23.4543C120.64 23.3434 120.917 23.2879 121.227 23.2879C121.477 23.2879 121.696 23.3212 121.885 23.3878C122.079 23.4543 122.223 23.5181 122.317 23.5791V21.3911Z" fill="white"/>
<path d="M129.987 25.5509C129.987 25.8947 129.937 26.2053 129.837 26.4826C129.737 26.76 129.596 26.9985 129.413 27.1981C129.235 27.3978 129.022 27.5531 128.772 27.664C128.523 27.7694 128.251 27.8221 127.957 27.8221C127.663 27.8221 127.391 27.7694 127.142 27.664C126.892 27.5531 126.676 27.3978 126.493 27.1981C126.315 26.9985 126.177 26.76 126.077 26.4826C125.977 26.2053 125.927 25.8947 125.927 25.5509C125.927 25.2125 125.977 24.9047 126.077 24.6274C126.177 24.3445 126.315 24.1033 126.493 23.9036C126.676 23.7039 126.892 23.5514 127.142 23.446C127.391 23.3351 127.663 23.2796 127.957 23.2796C128.251 23.2796 128.523 23.3351 128.772 23.446C129.022 23.5514 129.235 23.7039 129.413 23.9036C129.596 24.1033 129.737 24.3445 129.837 24.6274C129.937 24.9047 129.987 25.2125 129.987 25.5509ZM129.18 25.5509C129.18 25.0628 129.069 24.6773 128.847 24.3944C128.631 24.106 128.334 23.9618 127.957 23.9618C127.58 23.9618 127.28 24.106 127.058 24.3944C126.842 24.6773 126.734 25.0628 126.734 25.5509C126.734 26.0389 126.842 26.4272 127.058 26.7156C127.28 26.9985 127.58 27.1399 127.957 27.1399C128.334 27.1399 128.631 26.9985 128.847 26.7156C129.069 26.4272 129.18 26.0389 129.18 25.5509Z" fill="white"/>
<path d="M134.42 23.2963C134.486 23.2963 134.561 23.3018 134.645 23.3129C134.733 23.3184 134.819 23.3295 134.902 23.3462C134.986 23.3573 135.061 23.3711 135.127 23.3878C135.199 23.3989 135.252 23.41 135.285 23.4211L135.152 24.0949C135.091 24.0728 134.988 24.0478 134.844 24.0201C134.706 23.9868 134.525 23.9701 134.303 23.9701C134.159 23.9701 134.015 23.9868 133.871 24.0201C133.732 24.0478 133.641 24.0672 133.596 24.0783V27.7139H132.823V23.5708C133.006 23.5042 133.233 23.4432 133.505 23.3878C133.777 23.3268 134.082 23.2963 134.42 23.2963Z" fill="white"/>
</svg>
