<svg width="39" height="32" viewBox="0 0 39 32" fill="none" xmlns="http://www.w3.org/2000/svg">
<path d="M12.263 17.4974C11.3193 17.7691 10.3756 17.907 9.45761 17.907C8.816 17.907 8.20997 18.4197 8.33847 19.0483C8.98179 22.1953 9.57516 26.1023 13.1798 26.6381C13.5718 26.6964 13.8929 26.9798 13.9998 27.3612L14.9246 30.6691C15.0026 30.9489 14.9564 31.2483 14.7968 31.4911C14.6373 31.7338 14.3808 31.8958 14.0934 31.9352C13.7811 31.9778 13.4628 31.9995 13.1473 31.9995C8.06813 31.9995 3.03799 26.698 0.915429 19.1071C-0.330561 14.6537 -0.695941 7.95827 2.37319 3.744C4.09062 1.38586 6.59628 0.126596 9.82053 0.000834529C9.8338 0.000423992 9.84666 1.23391e-05 9.85994 1.23421e-05C13.8382 1.32165e-05 17.366 2.67927 18.4391 6.51495C19.0802 8.80795 18.7904 11.2128 17.6224 13.2879C16.4668 15.3398 14.5637 16.8354 12.263 17.4974Z" fill="#FFB300"/>
<path d="M37.1661 13.288C36.0106 15.3402 34.1075 16.8358 31.8068 17.4978C30.8631 17.7696 29.9194 17.9074 29.0017 17.9074C28.2324 17.9074 27.4183 19.0124 27.5973 19.7607C28.311 22.7445 29.2465 26.1217 32.724 26.6386C33.1159 26.6969 33.4366 26.9802 33.5439 27.3617L34.4688 30.6696C34.5468 30.9494 34.5005 31.2488 34.341 31.4916C34.1818 31.7343 33.9254 31.8963 33.6376 31.9357C33.3257 31.9783 33.0074 32 32.6915 32C27.6123 32 22.5821 26.6985 20.4591 19.1076C19.2136 14.6542 18.8483 7.9588 21.9177 3.74372C23.6348 1.38598 26.1408 0.126309 29.3647 0.000889526C29.3779 0.000478989 29.3908 6.99466e-05 29.4045 6.99496e-05C33.3824 7.0824e-05 36.9105 2.67939 37.9837 6.515C38.6239 8.80808 38.3337 11.2132 37.1661 13.288Z" fill="#FFB300"/>
</svg>
