<svg width="39" height="32" viewBox="0 0 39 32" fill="none" xmlns="http://www.w3.org/2000/svg">
<path d="M26.0533 14.5026C26.997 14.2309 27.9408 14.093 28.8588 14.093C29.5004 14.093 30.1064 13.5803 29.9779 12.9517C29.3346 9.80475 28.7412 5.8977 25.1365 5.36188C24.7446 5.30358 24.4235 5.02024 24.3166 4.63878L23.3917 1.33089C23.3137 1.05114 23.36 0.751703 23.5196 0.508931C23.6791 0.266164 23.9356 0.104186 24.2229 0.0647948C24.5352 0.0221946 24.8535 0.000490615 25.169 0.000490754C30.2482 0.000492987 35.2784 5.30201 37.4009 12.8929C38.6469 17.3463 39.0123 24.0417 35.9432 28.256C34.2258 30.6141 31.7201 31.8734 28.4958 31.9992C28.4826 31.9996 28.4697 32 28.4564 32C24.4782 32 20.9504 29.3207 19.8772 25.4851C19.2362 23.192 19.526 20.7872 20.694 18.7121C21.8495 16.6602 23.7527 15.1646 26.0533 14.5026Z" fill="#FFB300"/>
<path d="M1.15015 18.712C2.3057 16.6598 4.20883 15.1642 6.50947 14.5022C7.45323 14.2305 8.39692 14.0926 9.31455 14.0926C10.0839 14.0926 10.8979 12.9876 10.7189 12.2393C10.0053 9.25546 9.0698 5.87828 5.59227 5.36141C5.20039 5.30311 4.87966 5.01977 4.77234 4.63831L3.8475 1.3304C3.76953 1.05065 3.81575 0.751208 3.97531 0.508442C4.13448 0.265676 4.39091 0.103698 4.67869 0.0643066C4.99058 0.0217063 5.30891 2.33377e-06 5.62483 2.47265e-06C10.704 4.70544e-06 15.7342 5.30148 17.8571 12.8924C19.1027 17.3458 19.468 24.0412 16.3986 28.2563C14.6815 30.614 12.1755 31.8737 8.95156 31.9991C8.93836 31.9995 8.92549 31.9999 8.91181 31.9999C4.93391 31.9999 1.40578 29.3206 0.33263 25.485C-0.307642 23.1919 -0.0174494 20.7868 1.15015 18.712Z" fill="#FFB300"/>
</svg>
