<svg width="122" height="30" viewBox="0 0 122 30" fill="none" xmlns="http://www.w3.org/2000/svg">
<path fill-rule="evenodd" clip-rule="evenodd" d="M1.2652 2.11802C2.99989 -0.0265887 6.10563 -0.659259 8.56562 0.761007L14.6326 4.26369L12.477 5.51911C11.001 6.21731 9.13638 6.41479 8.01547 6.00496L1.2652 2.11802ZM17.1229 4.87747L14.2644 6.54224C12.7699 7.24932 11.4074 7.74633 10.3827 7.36809L16.4092 10.8382L31.5533 2.11812C29.8187 -0.0264926 26.7128 -0.659259 24.2528 0.761007L17.1229 4.87747Z" fill="white"/>
<path fill-rule="evenodd" clip-rule="evenodd" d="M10.6957 24.3565V17.2455L12.8463 18.487C14.33 19.522 15.5174 21.2764 15.5174 22.4856V30C12.7946 29.5684 10.6957 27.1958 10.6957 24.3565ZM9.98163 14.7735L12.8464 16.4274C14.3301 17.4624 15.5175 18.4849 15.5175 19.6943V14.9713C15.5018 13.3466 14.9657 12.1381 13.8351 11.4054L0.401798 3.67041L0.375277 3.66125C-0.611601 6.23477 0.393783 9.23796 2.85216 10.6573L9.98163 14.7735Z" fill="white"/>
<path fill-rule="evenodd" clip-rule="evenodd" d="M22.1254 24.3566V15.981L22.1253 12.6731C22.2716 10.9642 22.5419 9.4917 23.4621 8.82812L18.986 11.4056C17.8554 12.1383 17.3194 13.3468 17.3036 14.9715V30.0001C20.0265 29.5685 22.1254 27.1959 22.1254 24.3566ZM23.9089 14.1562L29.9689 10.6575C32.4273 9.23814 33.4327 6.23495 32.4458 3.66144L32.4193 3.6706L25.8483 7.45422C24.8803 8.16502 24.054 9.94961 23.9088 11.6435L23.9089 14.1562Z" fill="white"/>
<path fill-rule="evenodd" clip-rule="evenodd" d="M103.998 18.2824H105.849C106.868 18.2824 108.064 17.4492 108.507 16.431L109.208 14.8221H116.559L117.26 16.431C117.704 17.4492 118.9 18.2824 119.918 18.2824H121.77L114.69 2.03503H111.078L103.998 18.2824ZM91.2056 2.03503H93.4969C94.4261 2.03503 95.6353 2.79556 96.1838 3.72478L98.7127 8.00723L101.242 3.72478C101.79 2.79556 102.999 2.03503 103.929 2.03503H106.22L100.371 11.9408V18.2824H97.0548V11.9408L91.2056 2.03503ZM83.0761 1.61853C85.429 1.61853 87.5614 2.53228 89.1153 4.01269L87.2927 6.84908C86.3962 5.63536 84.9928 4.8529 82.8451 4.8529C80.6977 4.8529 78.1708 7.13502 78.1708 9.95019C78.1708 12.7654 80.367 15.0477 83.0761 15.0477C84.2099 15.0477 85.2539 14.6477 86.0845 13.9764V11.7771C86.0845 10.0595 87.4898 8.65428 89.2076 8.65428H89.8338V15.1126C88.257 17.0431 85.8161 18.2822 83.0759 18.2822C78.321 18.2822 74.4662 14.5518 74.4662 9.95019C74.4664 5.34888 78.3212 1.61853 83.0761 1.61853ZM63.6812 1.61853C68.4361 1.61853 72.2909 5.34889 72.2909 9.95037C72.2909 14.552 68.4363 18.2824 63.6812 18.2824C58.9263 18.2824 55.0715 14.552 55.0715 9.95037C55.0717 5.34889 58.9263 1.61853 63.6812 1.61853ZM63.6812 4.85307C60.9722 4.85307 58.776 7.1352 58.776 9.95037C58.776 12.7655 60.9722 15.0478 63.6812 15.0478C66.3903 15.0478 68.5864 12.7657 68.5864 9.95037C68.5866 7.1352 66.3904 4.85307 63.6812 4.85307ZM39.9354 2.03503H42.2267C43.1559 2.03503 44.3651 2.79556 44.9138 3.72478L47.4427 8.00723L49.9715 3.72478C50.5202 2.79556 51.7293 2.03503 52.6587 2.03503H54.95L49.1008 11.9408V18.2824H45.7849V11.9408L39.9354 2.03503ZM110.661 11.4892L112.884 6.38708L115.107 11.4892H110.661Z" fill="white"/>
<path fill-rule="evenodd" clip-rule="evenodd" d="M61.6171 27.107C61.2643 27.2964 60.9114 27.3652 60.5329 27.3652C59.3796 27.3652 58.5793 26.565 58.5793 25.4374C58.5793 24.2929 59.3796 23.5097 60.5499 23.5097C61.1609 23.5097 61.6687 23.7248 62.1075 24.1895L63.0026 23.3633C62.4174 22.6836 61.5396 22.3221 60.4811 22.3221C58.562 22.3221 57.1679 23.6216 57.1679 25.4372C57.1679 27.2532 58.562 28.5525 60.4554 28.5525C61.3159 28.5525 62.228 28.2858 62.8907 27.7866V25.3426H61.6169V27.107H61.6171ZM73.8566 28.4495L72.5055 26.5132C73.2887 26.1776 73.7447 25.5147 73.7447 24.6112C73.7447 23.2601 72.7378 22.4255 71.1287 22.4255H68.521V28.4495H69.9151V26.7714H71.1285H71.1974L72.3591 28.4495H73.8566ZM72.3334 24.6112C72.3334 25.2655 71.903 25.6613 71.0512 25.6613H69.9153V23.5613H71.0512C71.903 23.5613 72.3334 23.9487 72.3334 24.6112ZM82.103 28.5527C83.9962 28.5527 85.3989 27.2361 85.3989 25.4374C85.3989 23.6389 83.9962 22.3223 82.103 22.3223C80.2012 22.3223 78.807 23.6475 78.807 25.4374C78.807 27.2275 80.2012 28.5527 82.103 28.5527ZM82.103 27.3652C81.0274 27.3652 80.2183 26.5822 80.2183 25.4374C80.2183 24.2929 81.0274 23.5097 82.103 23.5097C83.1786 23.5097 83.9875 24.2927 83.9875 25.4374C83.9875 26.5821 83.1786 27.3652 82.103 27.3652ZM93.4647 28.5527C95.1771 28.5527 96.1927 27.5717 96.1927 25.7989V22.4253H94.8158V25.7473C94.8158 26.8917 94.3253 27.3651 93.4734 27.3651C92.6301 27.3651 92.1309 26.8917 92.1309 25.7473V22.4253H90.7368V25.7989C90.7368 27.5717 91.7522 28.5527 93.4647 28.5527ZM104.517 22.4255H101.909V28.4495H103.303V26.7887H104.517C106.126 26.7887 107.133 25.9539 107.133 24.6114C107.133 23.2601 106.126 22.4255 104.517 22.4255ZM104.439 25.6525H103.303V23.5613H104.439C105.291 23.5613 105.721 23.9485 105.721 24.6112C105.721 25.2655 105.291 25.6525 104.439 25.6525Z" fill="white"/>
</svg>
